<svg width="12" height="8" viewBox="0 0 12 8" fill="none" xmlns="http://www.w3.org/2000/svg">
<path d="M11.6083 1.40817C11.6744 1.34225 11.7405 1.27632 11.8066 1.2104C11.9387 1.01263 12.0048 0.748933 11.9387 0.485239C11.8726 0.221546 11.6744 0.0897012 11.4101 0.0237778C11.0796 -0.0421456 10.8153 0.0237738 10.5509 0.287467L7.97358 2.85848C7.04838 3.78141 6.12319 4.70434 5.1319 5.69319C5.1319 5.69319 5.06581 5.7591 5.06581 5.82503C5.06581 5.82503 4.99972 5.89096 4.99972 5.95688L4.86756 6.15464L2.95105 4.24287C2.75279 4.0451 2.48845 3.78141 2.29019 3.58364C2.15802 3.45179 1.95977 3.38587 1.76151 3.38587C1.49717 3.38587 1.29891 3.51772 1.10065 3.71549C0.836311 4.04511 0.902405 4.44064 1.23283 4.77026C1.95978 5.49542 2.62063 6.15465 3.34757 6.8798L4.07452 7.60497C4.60321 8.13235 4.93364 8.13235 5.46233 7.60497L11.6083 1.40817Z" fill="black"/>
</svg>
